<?xml version="1.0" standalone="no"?>
<!DOCTYPE svg PUBLIC "-//W3C//DTD SVG 20010904//EN"
 "http://www.w3.org/TR/2001/REC-SVG-20010904/DTD/svg10.dtd">
<svg version="1.0" xmlns="http://www.w3.org/2000/svg"
 width="512.000000pt" height="512.000000pt" viewBox="0 0 512.000000 512.000000"
 preserveAspectRatio="xMidYMid meet">

<g transform="translate(0.000000,512.000000) scale(0.100000,-0.100000)"
fill="#000000" stroke="none">
<path d="M2332 4735 c-227 -54 -385 -140 -543 -295 -140 -137 -215 -253 -279
-433 -29 -81 -62 -208 -56 -214 2 -2 25 23 52 56 27 33 49 59 50 58 2 -1 -7
-34 -18 -72 -18 -60 -21 -96 -22 -250 0 -199 16 -311 75 -520 39 -137 167
-496 214 -599 157 -346 396 -589 640 -651 350 -89 732 246 939 823 19 54 60
198 90 322 31 124 80 317 109 430 73 274 91 398 85 581 -6 166 -25 240 -83
327 -43 64 -131 124 -208 143 -75 18 -209 14 -300 -9 l-77 -20 0 42 c-1 166
-184 282 -475 300 -74 4 -108 1 -193 -19z m488 -734 c233 -15 330 -49 435
-155 140 -140 193 -357 165 -686 -24 -296 -77 -464 -209 -665 -43 -66 -212
-245 -230 -245 -5 0 -24 44 -42 98 l-34 97 -345 0 -345 0 -31 -90 c-16 -49
-32 -96 -35 -102 -6 -19 -144 111 -212 200 -84 109 -142 216 -168 310 -21 73
-23 104 -24 287 0 131 5 232 14 280 72 396 256 611 582 680 47 10 244 6 479
-9z m-1 -1717 c-98 -106 -281 -135 -419 -67 -36 18 -78 46 -94 62 l-30 31 284
0 283 0 -24 -26z"/>
</g>
</svg>
